HIERARCHY
ROOT pelvis
{
  OFFSET 0 100 0
  CHANNELS 6 Xposition Yposition Zposition Zrotation Xrotation Yrotation
  JOINT pelvis_right_femur
  {
    OFFSET -10.78128 -3.44521 -0.5502486
    CHANNELS 3 Zrotation Xrotation Yrotation
    JOINT right_femur_tibia
    {
      OFFSET -0.8047443 -44.0398 -0.1307829
      CHANNELS 3 Zrotation Xrotation Yrotation
      JOINT right_tibia_foot
      {
        OFFSET 3.006224 -47.83518 -5
        CHANNELS 3 Zrotation Xrotation Yrotation
        End Site
        {
          OFFSET 0 -5 15
        }
      }
    }
  }
  JOINT pelvis_left_femur
  {
    OFFSET 10.78128 -3.44521 -0.5502486
    CHANNELS 3 Zrotation Xrotation Yrotation
    JOINT left_femur_tibia
    {
      OFFSET 0.8047443 -44.0398 -0.1307829
      CHANNELS 3 Zrotation Xrotation Yrotation
      JOINT left_tibia_foot
      {
        OFFSET -4.370144 -48.10324 -4.275266
        CHANNELS 3 Zrotation Xrotation Yrotation
        End Site
        {
          OFFSET 0 -5 15
        }
      }
    }
  }
  JOINT pelvis_spine1
  {
    OFFSET 0 6.468898 -3.129235
    CHANNELS 3 Zrotation Xrotation Yrotation
    JOINT spine1
    {
      OFFSET 0 23.15396 4.99043
      CHANNELS 3 Zrotation Xrotation Yrotation
      JOINT spine2
      {
        OFFSET 0 20.79997 -5.064912
        CHANNELS 3 Zrotation Xrotation Yrotation
        JOINT neck
        {
          OFFSET 0 14.38658 9.616178
          CHANNELS 3 Zrotation Xrotation Yrotation
          End Site
          {
            OFFSET 0 20 0
          }
        }
      }
      JOINT right_manubrium
      {
        OFFSET -5.722621 16.35077 3.967754
        CHANNELS 3 Zrotation Xrotation Yrotation
        JOINT right_clavicle
        {
          OFFSET -13.16364 1.694482 -4.693211
          CHANNELS 3 Zrotation Xrotation Yrotation
          JOINT right_humerus
          {
            OFFSET -28.5034 -0.3100689 -2.792744
            CHANNELS 3 Zrotation Xrotation Yrotation
            JOINT right_radius
            {
              OFFSET -25.15693 0.02248979 -1.271978
              CHANNELS 3 Zrotation Xrotation Yrotation
              End Site
              {
                OFFSET -15 0 0
              }
            }
          }
        }
      }
      JOINT left_manubrium
      {
        OFFSET 5.722621 16.35077 3.967754
        CHANNELS 3 Zrotation Xrotation Yrotation
        JOINT left_clavicle
        {
          OFFSET 13.16364 1.694482 -4.693211
          CHANNELS 3 Zrotation Xrotation Yrotation
          JOINT left_humerus
          {
            OFFSET 29.39168 -1.063119 -2.237045
            CHANNELS 3 Zrotation Xrotation Yrotation
            JOINT left_radius
            {
              OFFSET 24.59957 -0.9528479 0.9047498
              CHANNELS 3 Zrotation Xrotation Yrotation
              End Site
              {
                OFFSET 15 -0 -0
              }
            }
          }
        }
      }
    }
  }
}
MOTION
Frames: 13
Frame Time: 0.0416666666667
-1510.278 105.3601 1810.999 -5.82702 -0.8817002 -92.03367 1.278945 -19.52456 -1.528293 -0 22.44671 -0 -11.23864 2.370349 -1.09911 -5.974697 13.07598 -14.44419 -0 10.21308 -0 4.304027 -18.83246 20.06058 1.103735 -3.434514 8.688494 -1.150879 15.5703 -3.54443 2.12474 19.80607 2.224825 -0.2441608 -17.8531 5.828485 -3.00461 -31.09697 11.96711 87.16175 16.9134 -4.336551 -0 0 30.97512 -26.38385 18.79903 18.17646 1.636644 -19.45412 -6.641539 -97.24986 12.3535 39.62579 0 0 -5.228087 2.536783 14.24517 10.94068
-1514.685 104.2965 1810.992 -5.089153 -0.9727865 -91.99284 1.817826 -22.32525 -1.641517 -0 17.75152 -0 -10.15859 2.065762 -1.239297 -6.167768 14.16786 -13.67527 -0 10.60588 -0 5.829575 -19.22974 20.06271 1.110993 -3.444769 8.693516 -1.148049 15.58649 -3.555052 2.122209 19.78994 2.221516 -0.2484889 -17.85496 5.825624 -3.009414 -31.11922 11.97051 87.17465 16.90284 -4.353031 -0 0 31.00142 -26.39101 18.83165 18.18084 1.632476 -19.47018 -6.652069 -97.24428 12.33367 39.64886 0 0 -5.259655 2.535053 14.24141 10.94616
-1519.368 103.1629 1810.95 -4.163158 -0.9196522 -91.93069 2.472992 -24.82339 -1.854401 -0 13.72412 -0 -9.581628 2.429639 -1.106838 -6.269111 14.78566 -12.7651 -0 11.87319 -0 7.086113 -19.18364 19.58868 1.118498 -3.454766 8.70391 -1.149012 15.60068 -3.559401 2.121854 19.77087 2.216004 -0.2561766 -17.85113 5.825508 -3.015134 -31.1507 11.97297 87.1762 16.8943 -4.345368 -0 0 31.05649 -26.4047 18.87738 18.19369 1.62595 -19.47375 -6.658448 -97.24845 12.31169 39.69364 0 0 -5.274852 2.521521 14.23659 10.9638
-1524.392 102.0978 1810.871 -3.077494 -0.6916659 -91.82998 3.267556 -26.84824 -2.056525 -0 10.55123 -0 -9.554215 3.257423 -0.7741048 -6.216074 14.96053 -11.81922 -0 14.27991 -0 7.822406 -18.62889 18.58307 1.125661 -3.463791 8.718472 -1.153413 15.61198 -3.557652 2.123517 19.7505 2.208889 -0.2663303 -17.84226 5.827894 -3.021208 -31.18831 11.9744 87.16712 16.88831 -4.316029 -0 0 31.13403 -26.42346 18.93186 18.21339 1.617776 -19.46558 -6.660563 -97.26127 12.28927 39.75506 0 0 -5.273794 2.498183 14.23123 10.99121
-1529.789 101.2629 1810.745 -1.932799 -0.2709597 -91.6932 4.221338 -28.05543 -2.089193 -0 8.629267 -0 -10.09194 4.238956 -0.3382847 -5.94938 14.67337 -10.97906 -0 18.16604 -0 7.795694 -17.4377 17.06996 1.132129 -3.471435 8.736181 -1.160828 15.61996 -3.550263 2.126994 19.72996 2.20065 -0.2782618 -17.82908 5.832519 -3.027296 -31.22971 11.97477 87.14853 16.88504 -4.267863 -0 0 31.22865 -26.44607 18.99177 18.23849 1.608503 -19.44683 -6.658572 -97.2815 12.26759 39.82884 0 0 -5.257615 2.466867 14.22568 11.02632
-1535.549 100.8255 1810.561 -0.9784892 0.3062053 -91.55189 5.296294 -27.96879 -1.832286 -0 8.345171 -0 -11.13068 5.013978 0.06323799 -5.449611 13.87341 -10.35588 -0 23.84385 -0 6.908844 -15.47876 15.247 1.137749 -3.477537 8.756254 -1.170832 15.62456 -3.537831 2.132078 19.70991 2.19163 -0.2915199 -17.81233 5.839155 -3.033275 -31.27331 11.97413 87.12172 16.88438 -4.203663 -0 0 31.33615 -26.47157 19.05488 18.26789 1.5985 -19.41876 -6.652788 -97.30795 12.24736 39.91173 0 0 -5.228064 2.429058 14.22009 11.06759
-1541.594 100.915 1810.312 -0.6036407 0.9148675 -91.4716 6.350988 -26.16489 -1.322127 -0 9.689814 -0 -12.48632 5.305332 0.2870968 -4.776628 12.45654 -9.930817 -0 31.38019 -0 5.379249 -12.75209 13.52479 1.142503 -3.482089 8.778083 -1.183016 15.62593 -3.521009 2.138575 19.69072 2.182068 -0.3058325 -17.79274 5.847621 -3.039173 -31.31809 11.97253 87.08806 16.88604 -4.126076 -0 0 31.45325 -26.49925 19.11971 18.30071 1.588007 -19.38265 -6.643595 -97.33949 12.22899 40.00123 0 0 -5.187214 2.385958 14.21449 11.11385
-1547.764 101.5768 1810 -1.111999 1.382765 -91.53776 7.204594 -22.5773 -0.7404149 -0 11.99022 -0 -13.85764 4.993382 0.2696632 -4.04599 10.18484 -9.530585 -0 40.29247 -0 3.685924 -9.547071 12.36542 1.146423 -3.485149 8.801114 -1.196959 15.62431 -3.500499 2.146289 19.67261 2.172168 -0.3209925 -17.77108 5.857743 -3.045081 -31.36318 11.97003 87.04902 16.88967 -4.037774 -0 0 31.5769 -26.52841 19.18502 18.33616 1.577211 -19.33981 -6.631418 -97.37499 12.21281 40.09509 0 0 -5.137329 2.338695 14.20886 11.16408
-1553.829 102.7395 1809.634 -2.395673 1.610791 -91.81851 7.777494 -17.68502 -0.2210703 -0 14.11593 -0 -14.85528 3.982692 0.05687408 -3.326929 6.696343 -8.956838 -0 49.28879 -0 2.219461 -6.454792 11.99845 1.149539 -3.486777 8.824731 -1.21219 15.61998 -3.47708 2.154993 19.65587 2.162158 -0.3367397 -17.74818 5.869298 -3.051061 -31.40763 11.96674 87.00615 16.89486 -3.941722 -0 0 31.70372 -26.55829 19.24938 18.37332 1.566329 -19.29172 -6.616739 -97.41323 12.19911 40.19081 0 0 -5.080801 2.288549 14.20318 11.21708
-1559.57 104.1842 1809.23 -3.941526 1.623958 -92.32761 8.086455 -12.34725 0.2178572 -0 14.99563 -0 -15.0989 2.142626 -0.2581092 -2.585699 1.838697 -8.107539 -0 56.31584 -0 1.107451 -4.144685 12.33346 1.151832 -3.487008 8.84818 -1.22816 15.61323 -3.451644 2.164395 19.64089 2.152336 -0.3526654 -17.72493 5.881949 -3.057066 -31.45017 11.96275 86.96115 16.90128 -3.841369 -0 0 31.82958 -26.58792 19.31092 18.41102 1.555659 -19.24013 -6.600119 -97.45283 12.18829 40.28535 0 0 -5.020105 2.237135 14.19752 11.27125
-1564.913 105.5618 1808.826 -5.257706 1.493777 -93.01844 8.133305 -7.345234 0.4964925 -0 14.06956 -0 -14.48034 -0.4025151 -0.550104 -1.749363 -3.914386 -6.954662 -0 59.26676 -0 0.4791926 -2.990226 13.11119 1.153208 -3.485826 8.870499 -1.244207 15.60434 -3.425236 2.174106 19.62831 2.14311 -0.368118 -17.70231 5.895178 -3.062855 -31.48903 11.95824 86.91589 16.90864 -3.740852 -0 0 31.94927 -26.61608 19.36708 18.4477 1.545634 -19.18714 -6.582234 -97.49215 12.18081 40.37481 0 0 -4.957743 2.18657 14.19209 11.32436
-1569.963 106.5285 1808.468 -6.152764 1.297958 -93.81111 7.931492 -2.979446 0.461087 -0 11.64147 -0 -13.35851 -3.207608 -0.6765254 -0.7709881 -9.651609 -5.564375 -0 57.17439 -0 0.5515342 -2.797383 14.057 1.153472 -3.483156 8.890466 -1.25953 15.59355 -3.399095 2.183622 19.61901 2.135019 -0.3821407 -17.68142 5.90824 -3.067948 -31.52187 11.95343 86.87242 16.91676 -3.645163 -0 0 32.05623 -26.64117 19.41439 18.48131 1.536857 -19.13536 -6.563906 -97.5293 12.17722 40.45424 0 0 -4.896246 2.139598 14.18727 11.37343
-1574.89 106.8983 1808.202 -6.606537 1.142853 -94.62694 7.571518 0.914563 0.1406462 -0 8.817107 -0 -12.29901 -6.007936 -0.6172365 0.3535452 -14.66317 -4.181297 -0 50.7063 -0 1.268407 -2.982957 14.95961 1.152401 -3.478929 8.906719 -1.273229 15.58122 -3.374623 2.192346 19.61399 2.12867 -0.3935994 -17.66338 5.920223 -3.071719 -31.54605 11.94859 86.83296 16.92546 -3.559889 -0 0 32.14316 -26.66143 19.449 18.50952 1.530012 -19.08773 -6.546097 -97.56217 12.17805 40.51818 0 0 -4.838245 2.099345 14.18357 11.41498
